Coordinates
version=1
nRows=15
nColumns=33
inDegrees=yes

Units are S.I. units (second, meters, Newtons, ...)
Angles are in degrees.

endheader
time	ground_thorax_rot_x	ground_thorax_rot_y	ground_thorax_rot_z	ground_thorax_tx	ground_thorax_ty	ground_thorax_tz	clav_prot_r	clav_elev_r	scapula_abduction_r	scapula_elevation_r	scapula_upward_rot_r	scapula_winging_r	shoulder_elv_r	plane_of_elev_r	axial_rot_r	elbow_flexion_r	pro_sup_r	wrist_flex_r	wrist_dev_r	clav_prot_l	clav_elev_l	scapula_abduction_l	scapula_elevation_l	scapula_upward_rot_l	scapula_winging_l	shoulder_elv_l	plane_of_elev_l	axial_rot_l	elbow_flexion_l	pro_sup_l	wrist_flex_l	wrist_dev_l	
0.7700	1.527544	-1.307819	-12.892066	-0.041496	1.047229	-0.000911	-12.694696	-6.848800	-11.031856	-1.900131	9.495116	-0.660322	59.278295	-44.361491	65.013483	72.425385	6.536437	20.532181	8.224423	-5.686207	-4.530488	3.366541	-3.714985	-3.144575	-0.496299	57.299271	-52.804846	-41.251970	70.793427	9.864722	-0.677066	-24.999800	
0.7800	1.498268	-1.333828	-12.941641	-0.041374	1.047167	-0.000921	-12.671087	-6.703865	-10.896768	-1.845267	9.729089	-0.772540	60.047599	-44.161281	65.500697	73.708946	6.457765	20.640841	8.495888	-5.637077	-4.385435	3.224738	-3.766407	-2.925383	-0.392876	57.866827	-53.033965	-41.603506	71.942178	9.380822	-0.562402	-24.999642	
0.7900	1.476557	-1.362234	-12.996971	-0.041208	1.047161	-0.000922	-12.651164	-6.598097	-10.764946	-1.822305	9.953260	-0.867422	60.859433	-43.946576	65.962174	75.021583	6.374251	20.713956	8.780363	-5.591655	-4.291782	3.079256	-3.771532	-2.707148	-0.302174	58.472384	-53.276746	-42.000604	73.087945	8.669616	-0.403684	-24.999359	
0.8000	1.452770	-1.391511	-13.072339	-0.041007	1.047172	-0.000917	-12.633562	-6.514598	-10.631537	-1.819531	10.178603	-0.954057	61.638327	-43.706832	66.340561	76.328895	6.284020	20.774532	9.036367	-5.548874	-4.221625	2.931485	-3.753653	-2.484312	-0.216199	59.077279	-53.487655	-42.399630	74.213876	7.784553	-0.224747	-24.998851	
0.8100	1.426548	-1.420604	-13.122759	-0.040789	1.047204	-0.000903	-12.612054	-6.443052	-10.497118	-1.821849	10.387603	-1.033215	62.406843	-43.448447	66.676881	77.633625	6.181354	20.813152	9.270934	-5.501888	-4.168881	2.776506	-3.724385	-2.272974	-0.134597	59.697554	-53.684335	-42.833810	75.309798	6.685464	-0.015976	-24.997942	
0.8200	1.392758	-1.448535	-13.168445	-0.040566	1.047218	-0.000890	-12.587412	-6.367956	-10.355947	-1.821613	10.599426	-1.115026	63.094956	-43.161700	66.923859	78.899214	6.059525	20.856266	9.445856	-5.450017	-4.107110	2.616828	-3.706092	-2.068929	-0.050566	60.284488	-53.814222	-43.239328	76.364385	5.504113	0.182719	-24.996311	
0.8300	1.358367	-1.476822	-13.198846	-0.040326	1.047258	-0.000869	-12.562497	-6.317509	-10.221713	-1.835406	10.787117	-1.182321	63.766535	-42.848271	67.116263	80.146329	5.897646	20.860323	9.579682	-5.394559	-4.077145	2.455201	-3.670019	-1.894263	0.021394	60.882700	-53.909079	-43.656606	77.373616	4.057756	0.394932	-24.993401	
0.8400	1.317102	-1.504513	-13.238162	-0.040078	1.047278	-0.000845	-12.537591	-6.270981	-10.082845	-1.854491	10.981092	-1.249846	64.332588	-42.504525	67.193623	81.332089	5.695169	20.861509	9.636543	-5.335414	-4.045433	2.291987	-3.640568	-1.732852	0.092394	61.427901	-53.913384	-44.004478	78.324182	2.550835	0.575137	-24.988156	
0.8500	1.274856	-1.528991	-13.262634	-0.039825	1.047289	-0.000818	-12.510581	-6.228139	-9.938930	-1.876656	11.175287	-1.316543	64.817574	-42.146728	67.180513	82.460299	5.448299	20.847059	9.633828	-5.271024	-4.021146	2.123588	-3.610384	-1.587184	0.160414	61.925888	-53.847631	-44.296277	79.213910	0.987669	0.731047	-24.978852	
0.8600	1.232611	-1.546818	-13.291659	-0.039573	1.047266	-0.000800	-12.479513	-6.179262	-9.776607	-1.900259	11.391865	-1.391649	65.172479	-41.781682	67.042587	83.502481	5.152544	20.832738	9.560055	-5.200827	-3.990988	1.944624	-3.584745	-1.438993	0.233065	62.327033	-53.681226	-44.469277	80.038675	-0.422442	0.832141	-24.961927	
0.8700	1.199408	-1.555437	-13.311973	-0.039315	1.047249	-0.000787	-12.443839	-6.146743	-9.604159	-1.936994	11.605045	-1.460927	65.458790	-41.419815	66.811668	84.477342	4.786596	20.773232	9.441025	-5.125442	-3.993208	1.753208	-3.533472	-1.300164	0.299043	62.668624	-53.451403	-44.563279	80.800069	-1.821447	0.907259	-24.932334	
0.8800	1.173393	-1.552678	-13.322156	-0.039095	1.047213	-0.000787	-12.385733	-6.101669	-9.402659	-1.957311	11.804474	-1.535273	65.622390	-41.057492	66.443539	85.360648	4.262696	20.622252	9.235686	-5.027819	-4.004551	1.530557	-3.484111	-1.187856	0.366187	62.913479	-53.129217	-44.530409	81.487157	-3.257568	0.935190	-24.877302	
0.8900	1.156646	-1.536550	-13.309752	-0.038914	1.047170	-0.000799	-12.307456	-6.049560	-9.180207	-1.963034	11.980334	-1.610147	65.680027	-40.689423	65.958110	86.143332	3.577755	20.380797	8.962917	-4.909720	-4.031794	1.280131	-3.431962	-1.105907	0.431184	63.076996	-52.719816	-44.400631	82.093514	-4.784731	0.931559	-24.784370	
0.9000	1.146429	-1.505830	-13.291845	-0.038780	1.047123	-0.000824	-12.213093	-5.993500	-8.947515	-1.954889	12.125447	-1.681834	65.604970	-40.293801	65.329161	86.803386	2.648971	20.026818	8.628267	-4.772257	-4.076299	1.007323	-3.378888	-1.062917	0.490892	63.156576	-52.199216	-44.164790	82.613400	-6.536807	0.904963	-24.602143	
0.9100	1.147042	-1.461602	-13.277162	-0.038649	1.047108	-0.000858	-12.121670	-5.969816	-8.727480	-1.967099	12.244165	-1.735092	65.442352	-39.864254	64.590897	87.338764	1.545304	19.607785	8.283087	-4.634581	-4.169922	0.733697	-3.289976	-1.042574	0.534468	63.186318	-51.583653	-43.866542	83.040118	-8.452919	0.877628	-24.319706	
